<svg width="28" height="26" viewBox="0 0 28 26" fill="none" xmlns="http://www.w3.org/2000/svg">
<path d="M25.1887 7.61754C24.2393 12.4593 22.1584 22.7888 19.8799 23.4724C17.0318 24.042 7.29032 25.3226 6.49382 22.6179C5.35459 18.3458 3.36092 11.7952 2.50649 8.09265M2.50649 8.09265C12.9876 10.3711 22.8229 8.47239 26.4304 7.23821C27 6.9534 26.7152 6.38378 27 4.1053C27 3.24373 26.7104 2.74415 26.2407 2.42405M2.50649 8.09265C1.71467 7.93 1.41707 7.26539 1.36725 6.95341C1.1457 5.84564 0.579448 3.53143 1.54548 2.42405M26.2407 2.42405C25.7788 2.10926 25.1428 1.96805 24.4367 1.82684C12.1899 0.117978 5.35459 1.54203 2.7913 1.82684C2.222 1.89009 1.82129 2.10788 1.54548 2.42405M26.2407 2.42405C25.5845 3.16514 22.1239 4.53891 13.5316 4.1053C7.55062 3.8481 2.94539 4.13291 1.54548 2.42405" stroke="black" stroke-width="2" stroke-linejoin="round"/>
</svg>
