<!DOCTYPE svg PUBLIC "-//W3C//DTD SVG 1.1//EN" "http://www.w3.org/Graphics/SVG/1.1/DTD/svg11.dtd">
<!-- Uploaded to: SVG Repo, www.svgrepo.com, Transformed by: SVG Repo Mixer Tools -->
<svg fill="#000000" height="216px" width="216px" version="1.1" id="Capa_1" xmlns="http://www.w3.org/2000/svg" xmlns:xlink="http://www.w3.org/1999/xlink" viewBox="-47.55 -47.55 570.61 570.61" xml:space="preserve" stroke="#000000">
<g id="SVGRepo_bgCarrier" stroke-width="0" transform="translate(0,0), scale(1)"/>
<g id="SVGRepo_tracerCarrier" stroke-linecap="round" stroke-linejoin="round" stroke="#ffffff" stroke-width="11.412168"> <g> <path d="M320.315,0h30v86.066h-30V0z M389.44,125.195h86.065v30H389.44V125.195z M422.518,31.774l21.213,21.213l-60.857,60.857 l-21.213-21.213L422.518,31.774z"/> <path d="M177.507,138.569v57.435l-21.26,21.26l-36.3-36.299L35.65,265.263l36.299,36.299L0.002,373.509l101.997,101.998 l177.505-177.505h57.436l86.219-86.219L263.725,52.35L177.507,138.569z M78.076,265.263l41.871-41.872l15.086,15.086 l-41.872,41.871L78.076,265.263z M324.513,268.002h-57.436L101.999,433.081L42.428,373.51l165.079-165.079v-57.435l13.793-13.793 L338.307,254.21L324.513,268.002z M359.519,232.996L242.512,115.989l21.213-21.213l117.007,117.006L359.519,232.996z"/> </g> </g>
<g id="SVGRepo_iconCarrier"> <g> <path d="M320.315,0h30v86.066h-30V0z M389.44,125.195h86.065v30H389.44V125.195z M422.518,31.774l21.213,21.213l-60.857,60.857 l-21.213-21.213L422.518,31.774z"/> <path d="M177.507,138.569v57.435l-21.26,21.26l-36.3-36.299L35.65,265.263l36.299,36.299L0.002,373.509l101.997,101.998 l177.505-177.505h57.436l86.219-86.219L263.725,52.35L177.507,138.569z M78.076,265.263l41.871-41.872l15.086,15.086 l-41.872,41.871L78.076,265.263z M324.513,268.002h-57.436L101.999,433.081L42.428,373.51l165.079-165.079v-57.435l13.793-13.793 L338.307,254.21L324.513,268.002z M359.519,232.996L242.512,115.989l21.213-21.213l117.007,117.006L359.519,232.996z"/> </g> </g>
</svg>