<svg width="30" height="27" viewBox="0 0 30 27" fill="none" xmlns="http://www.w3.org/2000/svg">
<path d="M26.1887 8.61754C25.2393 13.4593 23.1584 23.7888 20.8799 24.4724C18.0318 25.042 8.29032 26.3226 7.49382 23.6179C6.35459 19.3458 4.36092 12.7952 3.50649 9.09265M3.50649 9.09265C13.9876 11.3711 23.8229 9.47239 27.4304 8.23821C28 7.9534 27.7152 7.38378 28 5.1053C28 4.24373 27.7104 3.74415 27.2407 3.42405M3.50649 9.09265C2.71467 8.93 2.41707 8.26539 2.36725 7.95341C2.1457 6.84564 1.57945 4.53143 2.54548 3.42405M27.2407 3.42405C26.7788 3.10926 26.1428 2.96805 25.4367 2.82684C13.1899 1.11798 6.35459 2.54203 3.7913 2.82684C3.222 2.89009 2.82129 3.10788 2.54548 3.42405M27.2407 3.42405C26.5845 4.16514 23.1239 5.53891 14.5316 5.1053C8.55062 4.8481 3.94539 5.13291 2.54548 3.42405" stroke="black" stroke-width="3" stroke-linejoin="round"/>
</svg>
