<svg width="69" height="75" viewBox="0 0 69 75" fill="none" xmlns="http://www.w3.org/2000/svg">
<path d="M18.2009 3.80098C15.1741 2.29513 8.74203 -0.34009 8.74203 0.0363768C8.74203 3.04807 8.36368 3.04807 8.36368 6.43621C8.74203 15.8477 12.1472 19.6124 13.6606 21.1182C16.3091 24.1299 17.4442 24.8828 18.5793 26.3887C19.2214 27.2405 20.0927 27.8945 23.8762 31.6591C28.4165 35.8002 28.7948 36.9296 29.5516 39.1884C31.065 45.2118 31.065 48.5999 31.065 51.9881C31.065 55.3762 31.4433 70.8111 31.4433 72.6935C31.4433 73.0699 31.065 73.4464 32.2 74.5758C32.9568 67.7994 31.8217 48.9764 31.4433 45.5882C31.4433 37.6825 33.6452 37.8099 37.1187 36.5532C41.2806 35.0473 46.9559 31.6591 51.4961 28.271C58.6975 22.897 61.3334 14.3419 61.3334 13.589C59.82 13.589 57.1715 12.4596 53.7663 12.4596C36.7403 12.0831 32.2 31.6591 31.065 40.3178C30.6867 39.565 30.6867 34.2961 30.6867 29.4028V29.4004C31.4434 10.5773 20.471 5.30682 18.2009 3.80098Z" fill="#01261F"/>
<path d="M60.1195 60.4178C69.2442 60.7324 69.4277 65.6614 68.7722 69.0698V69.8564C64.1836 71.4295 54.8492 74.5757 54.2199 74.5757C53.5906 74.5757 18.2981 70.9051 0.730525 69.0698C0.730525 68.6766 -0.60668 69.6991 0.337251 67.4967C1.12386 66.9724 -0.0560459 64.3505 3.87697 62.3841C12.0577 57.9794 21.7068 60.811 25.5087 62.7774C27.9996 63.9572 30.7349 62.3416 33.7681 61.2043C43.8367 56.7996 55.5309 58.8446 60.1195 60.4178Z" fill="#8C512F"/>
</svg>
