<svg width="23" height="23" viewBox="0 0 23 23" fill="none" xmlns="http://www.w3.org/2000/svg">
<path d="M16.726 11.25L6.27148 11.25" stroke="black" stroke-width="3.94309" stroke-linecap="round"/>
<mask id="path-2-inside-1_507_75" fill="white">
<path fill-rule="evenodd" clip-rule="evenodd" d="M20.125 22.5H14.375V21.0938H20.125C20.9185 21.0938 21.5625 20.4639 21.5625 19.6863V14.063H23V19.6863C23 21.2415 21.712 22.5 20.125 22.5ZM21.5625 2.81507C21.5625 2.03606 20.9185 1.40616 20.125 1.40616H14.375V0H20.125C21.712 0 23 1.25986 23 2.81507V8.43836H21.5625V2.81507ZM0 19.6863V14.063H1.4375V19.6863C1.4375 20.4639 2.08006 21.0938 2.875 21.0938H8.625V22.5H2.875C1.288 22.5 0 21.2415 0 19.6863ZM1.4375 2.81507V8.43836H0V2.81507C0 1.25986 1.288 0 2.875 0H8.625V1.40616H2.875C2.08006 1.40616 1.4375 2.03606 1.4375 2.81507Z"/>
</mask>
<path fill-rule="evenodd" clip-rule="evenodd" d="M20.125 22.5H14.375V21.0938H20.125C20.9185 21.0938 21.5625 20.4639 21.5625 19.6863V14.063H23V19.6863C23 21.2415 21.712 22.5 20.125 22.5ZM21.5625 2.81507C21.5625 2.03606 20.9185 1.40616 20.125 1.40616H14.375V0H20.125C21.712 0 23 1.25986 23 2.81507V8.43836H21.5625V2.81507ZM0 19.6863V14.063H1.4375V19.6863C1.4375 20.4639 2.08006 21.0938 2.875 21.0938H8.625V22.5H2.875C1.288 22.5 0 21.2415 0 19.6863ZM1.4375 2.81507V8.43836H0V2.81507C0 1.25986 1.288 0 2.875 0H8.625V1.40616H2.875C2.08006 1.40616 1.4375 2.03606 1.4375 2.81507Z" fill="black"/>
<path d="M14.375 22.5H12.8369V24.0381H14.375V22.5ZM14.375 21.0938V19.5557H12.8369V21.0938H14.375ZM21.5625 14.063V12.5249H20.0244V14.063H21.5625ZM23 14.063H24.5381V12.5249H23V14.063ZM14.375 1.40616H12.8369V2.94428H14.375V1.40616ZM14.375 0V-1.53811H12.8369V0H14.375ZM23 8.43836V9.97647H24.5381V8.43836H23ZM21.5625 8.43836H20.0244V9.97647H21.5625V8.43836ZM0 14.063V12.5249H-1.53811V14.063H0ZM1.4375 14.063H2.97561V12.5249H1.4375V14.063ZM8.625 21.0938H10.1631V19.5557H8.625V21.0938ZM8.625 22.5V24.0381H10.1631V22.5H8.625ZM1.4375 8.43836V9.97647H2.97561V8.43836H1.4375ZM0 8.43836H-1.53811V9.97647H0V8.43836ZM8.625 0H10.1631V-1.53811H8.625V0ZM8.625 1.40616V2.94428H10.1631V1.40616H8.625ZM20.125 20.9619H14.375V24.0381H20.125V20.9619ZM15.9131 22.5V21.0938H12.8369V22.5H15.9131ZM14.375 22.6319H20.125V19.5557H14.375V22.6319ZM20.125 22.6319C21.7368 22.6319 23.1006 21.3442 23.1006 19.6863H20.0244C20.0244 19.6398 20.0458 19.6016 20.0654 19.5825C20.0843 19.564 20.108 19.5557 20.125 19.5557V22.6319ZM23.1006 19.6863V14.063H20.0244V19.6863H23.1006ZM21.5625 15.6011H23V12.5249H21.5625V15.6011ZM21.4619 14.063V19.6863H24.5381V14.063H21.4619ZM21.4619 19.6863C21.4619 20.3602 20.8947 20.9619 20.125 20.9619V24.0381C22.5293 24.0381 24.5381 22.1228 24.5381 19.6863H21.4619ZM23.1006 2.81507C23.1006 1.15669 21.7378 -0.131947 20.125 -0.131947V2.94428C20.108 2.94428 20.0841 2.93599 20.065 2.91731C20.0453 2.89795 20.0244 2.86012 20.0244 2.81507H23.1006ZM20.125 -0.131947H14.375V2.94428H20.125V-0.131947ZM15.9131 1.40616V0H12.8369V1.40616H15.9131ZM14.375 1.53811H20.125V-1.53811H14.375V1.53811ZM20.125 1.53811C20.8937 1.53811 21.4619 2.14017 21.4619 2.81507H24.5381C24.5381 0.379544 22.5303 -1.53811 20.125 -1.53811V1.53811ZM21.4619 2.81507V8.43836H24.5381V2.81507H21.4619ZM23 6.90025H21.5625V9.97647H23V6.90025ZM23.1006 8.43836V2.81507H20.0244V8.43836H23.1006ZM1.53811 19.6863V14.063H-1.53811V19.6863H1.53811ZM0 15.6011H1.4375V12.5249H0V15.6011ZM-0.100611 14.063V19.6863H2.97561V14.063H-0.100611ZM-0.100611 19.6863C-0.100611 21.3432 1.26074 22.6319 2.875 22.6319V19.5557C2.89079 19.5557 2.91481 19.5636 2.93445 19.5829C2.9546 19.6026 2.97561 19.6408 2.97561 19.6863H-0.100611ZM2.875 22.6319H8.625V19.5557H2.875V22.6319ZM7.08689 21.0938V22.5H10.1631V21.0938H7.08689ZM8.625 20.9619H2.875V24.0381H8.625V20.9619ZM2.875 20.9619C2.10532 20.9619 1.53811 20.3602 1.53811 19.6863H-1.53811C-1.53811 22.1228 0.470682 24.0381 2.875 24.0381V20.9619ZM-0.100611 2.81507V8.43836H2.97561V2.81507H-0.100611ZM1.4375 6.90025H0V9.97647H1.4375V6.90025ZM1.53811 8.43836V2.81507H-1.53811V8.43836H1.53811ZM1.53811 2.81507C1.53811 2.14017 2.10631 1.53811 2.875 1.53811V-1.53811C0.469694 -1.53811 -1.53811 0.379544 -1.53811 2.81507H1.53811ZM2.875 1.53811H8.625V-1.53811H2.875V1.53811ZM7.08689 0V1.40616H10.1631V0H7.08689ZM8.625 -0.131947H2.875V2.94428H8.625V-0.131947ZM2.875 -0.131947C1.25978 -0.131947 -0.100611 1.15768 -0.100611 2.81507H2.97561C2.97561 2.85909 2.95516 2.89699 2.93481 2.91694C2.91502 2.93633 2.89081 2.94428 2.875 2.94428V-0.131947Z" fill="black" mask="url(#path-2-inside-1_507_75)"/>
</svg>
