<svg width="256" height="373" viewBox="0 0 256 373" fill="none" xmlns="http://www.w3.org/2000/svg">
<mask id="path-1-outside-1_360_516" maskUnits="userSpaceOnUse" x="-3" y="-3" width="262" height="379" fill="black">
<rect fill="white" x="-3" y="-3" width="262" height="379"/>
<path d="M0.271484 373V0.499968H255.272V68H77.7715V162.5H230.271V230H77.7715V373H0.271484Z"/>
</mask>
<path d="M0.271484 373H-2.72852V376H0.271484V373ZM0.271484 0.499968V-2.50003H-2.72852V0.499968H0.271484ZM255.272 0.499968H258.272V-2.50003H255.272V0.499968ZM255.272 68V71H258.272V68H255.272ZM77.7715 68V65H74.7715V68H77.7715ZM77.7715 162.5H74.7715V165.5H77.7715V162.5ZM230.271 162.5H233.271V159.5H230.271V162.5ZM230.271 230V233H233.271V230H230.271ZM77.7715 230V227H74.7715V230H77.7715ZM77.7715 373V376H80.7715V373H77.7715ZM3.27148 373V0.499968H-2.72852V373H3.27148ZM0.271484 3.49997H255.272V-2.50003H0.271484V3.49997ZM252.272 0.499968V68H258.272V0.499968H252.272ZM255.272 65H77.7715V71H255.272V65ZM74.7715 68V162.5H80.7715V68H74.7715ZM77.7715 165.5H230.271V159.5H77.7715V165.5ZM227.271 162.5V230H233.271V162.5H227.271ZM230.271 227H77.7715V233H230.271V227ZM74.7715 230V373H80.7715V230H74.7715ZM77.7715 370H0.271484V376H77.7715V370Z" fill="#ECF2F6" fill-opacity="0.8" mask="url(#path-1-outside-1_360_516)"/>
</svg>
