<svg width="258" height="379" viewBox="0 0 258 379" fill="none" xmlns="http://www.w3.org/2000/svg">
<mask id="path-1-outside-1_360_515" maskUnits="userSpaceOnUse" x="-39" y="-3" width="300" height="385" fill="black">
<rect fill="white" x="-39" y="-3" width="300" height="385"/>
<path d="M-35.2129 379V6H34.7871V58L28.2871 43C37.2871 29.3333 49.4538 18.8333 64.7871 11.5C80.4538 3.83332 98.2871 -1.40667e-05 118.287 -1.40667e-05C144.287 -1.40667e-05 167.787 6.33332 188.787 19C209.787 31.6667 226.454 48.8333 238.787 70.5C251.12 91.8333 257.287 115.833 257.287 142.5C257.287 168.833 251.12 192.833 238.787 214.5C226.787 236.167 210.287 253.333 189.287 266C168.287 278.667 144.454 285 117.787 285C99.1205 285 81.7871 281.667 65.7871 275C50.1204 268 37.4538 257.833 27.7871 244.5L39.7871 229V379H-35.2129ZM108.787 217.5C122.787 217.5 135.12 214.333 145.787 208C156.454 201.667 164.787 192.833 170.787 181.5C176.787 170.167 179.787 157.167 179.787 142.5C179.787 127.833 176.787 115 170.787 104C164.787 92.6667 156.454 83.8333 145.787 77.5C135.12 70.8333 122.787 67.5 108.787 67.5C95.4538 67.5 83.4538 70.6667 72.7871 77C62.4538 83.3333 54.2871 92.1667 48.2871 103.5C42.6205 114.833 39.7871 127.833 39.7871 142.5C39.7871 157.167 42.6205 170.167 48.2871 181.5C54.2871 192.833 62.4538 201.667 72.7871 208C83.4538 214.333 95.4538 217.5 108.787 217.5Z"/>
</mask>
<path d="M-35.2129 379H-38.2129V382H-35.2129V379ZM-35.2129 6V3H-38.2129V6H-35.2129ZM34.7871 6H37.7871V3H34.7871V6ZM34.7871 58L32.0344 59.1928L37.7871 58H34.7871ZM28.2871 43L25.7816 41.35L24.8896 42.7046L25.5344 44.1928L28.2871 43ZM64.7871 11.5L66.0815 14.2064L66.0937 14.2006L66.1058 14.1946L64.7871 11.5ZM188.787 19L190.337 16.4311L190.337 16.4311L188.787 19ZM238.787 70.5L236.18 71.9841L236.185 71.9928L236.19 72.0015L238.787 70.5ZM238.787 214.5L236.18 213.016L236.171 213.031L236.163 213.046L238.787 214.5ZM189.287 266L187.738 263.431L187.738 263.431L189.287 266ZM65.7871 275L64.5633 277.739L64.5981 277.755L64.6333 277.769L65.7871 275ZM27.7871 244.5L25.4149 242.663L24.0388 244.441L25.3583 246.261L27.7871 244.5ZM39.7871 229H42.7871V220.224L37.4149 227.163L39.7871 229ZM39.7871 379V382H42.7871V379H39.7871ZM145.787 208L147.319 210.58L147.319 210.58L145.787 208ZM170.787 181.5L168.136 180.096L168.136 180.096L170.787 181.5ZM170.787 104L168.136 105.404L168.144 105.42L168.153 105.437L170.787 104ZM145.787 77.5L144.197 80.044L144.226 80.0621L144.256 80.0796L145.787 77.5ZM72.7871 77L71.2555 74.4204L71.2374 74.4312L71.2194 74.4422L72.7871 77ZM48.2871 103.5L45.6358 102.096L45.6194 102.127L45.6038 102.158L48.2871 103.5ZM48.2871 181.5L45.6038 182.842L45.6194 182.873L45.6358 182.904L48.2871 181.5ZM72.7871 208L71.2194 210.558L71.2374 210.569L71.2555 210.58L72.7871 208ZM-32.2129 379V6H-38.2129V379H-32.2129ZM-35.2129 9H34.7871V3H-35.2129V9ZM31.7871 6V58H37.7871V6H31.7871ZM37.5398 56.8072L31.0398 41.8072L25.5344 44.1928L32.0344 59.1928L37.5398 56.8072ZM30.7926 44.65C39.4806 31.4571 51.2205 21.3138 66.0815 14.2064L63.4928 8.79358C47.6871 16.3528 35.0937 27.2095 25.7816 41.35L30.7926 44.65ZM66.1058 14.1946C81.3055 6.75645 98.677 2.99999 118.287 2.99999V-3.00001C97.8972 -3.00001 79.602 0.910188 63.4685 8.80534L66.1058 14.1946ZM118.287 2.99999C143.775 2.99999 166.734 9.20142 187.238 21.5689L190.337 16.4311C168.841 3.46521 144.799 -3.00001 118.287 -3.00001V2.99999ZM187.238 21.5689C207.791 33.9658 224.096 50.7558 236.18 71.9841L241.394 69.0159C228.811 46.9108 211.784 29.3675 190.337 16.4311L187.238 21.5689ZM236.19 72.0015C248.238 92.8412 254.287 116.316 254.287 142.5H260.287C260.287 115.351 254.003 90.8254 241.384 68.9985L236.19 72.0015ZM254.287 142.5C254.287 168.343 248.241 191.827 236.18 213.016L241.394 215.984C254 193.839 260.287 169.323 260.287 142.5H254.287ZM236.163 213.046C224.415 234.258 208.283 251.039 187.738 263.431L190.837 268.569C212.291 255.628 229.16 238.075 241.412 215.953L236.163 213.046ZM187.738 263.431C167.246 275.791 143.957 282 117.787 282V288C144.951 288 169.328 281.542 190.837 268.569L187.738 263.431ZM117.787 282C99.4858 282 82.548 278.734 66.941 272.231L64.6333 277.769C81.0263 284.6 98.7551 288 117.787 288V282ZM67.0109 272.261C51.8038 265.466 39.5605 255.628 30.2159 242.739L25.3583 246.261C35.3471 260.039 48.4371 270.534 64.5633 277.739L67.0109 272.261ZM30.1593 246.337L42.1593 230.837L37.4149 227.163L25.4149 242.663L30.1593 246.337ZM36.7871 229V379H42.7871V229H36.7871ZM39.7871 376H-35.2129V382H39.7871V376ZM108.787 220.5C123.255 220.5 136.131 217.222 147.319 210.58L144.256 205.42C134.11 211.445 122.319 214.5 108.787 214.5V220.5ZM147.319 210.58C158.476 203.955 167.19 194.707 173.438 182.904L168.136 180.096C162.385 190.959 154.431 199.378 144.256 205.42L147.319 210.58ZM173.438 182.904C179.698 171.079 182.787 157.585 182.787 142.5H176.787C176.787 156.748 173.876 169.254 168.136 180.096L173.438 182.904ZM182.787 142.5C182.787 127.417 179.699 114.074 173.421 102.563L168.153 105.437C173.875 115.926 176.787 128.249 176.787 142.5H182.787ZM173.438 102.596C167.19 90.7928 158.476 81.5452 147.319 74.9204L144.256 80.0796C154.431 86.1215 162.385 94.5405 168.136 105.404L173.438 102.596ZM147.377 74.956C136.181 67.9584 123.284 64.5 108.787 64.5V70.5C122.29 70.5 134.06 73.7082 144.197 80.044L147.377 74.956ZM108.787 64.5C94.9565 64.5 82.4203 67.7913 71.2555 74.4204L74.3187 79.5796C84.4872 73.542 95.951 70.5 108.787 70.5V64.5ZM71.2194 74.4422C60.4011 81.0728 51.8719 90.3169 45.6358 102.096L50.9385 104.904C56.7023 94.0164 64.5064 85.5939 74.3548 79.5578L71.2194 74.4422ZM45.6038 102.158C39.6984 113.969 36.7871 127.441 36.7871 142.5H42.7871C42.7871 128.226 45.5425 115.697 50.9704 104.842L45.6038 102.158ZM36.7871 142.5C36.7871 157.559 39.6984 171.031 45.6038 182.842L50.9704 180.158C45.5425 169.303 42.7871 156.774 42.7871 142.5H36.7871ZM45.6358 182.904C51.8719 194.683 60.4011 203.927 71.2194 210.558L74.3548 205.442C64.5064 199.406 56.7023 190.984 50.9385 180.096L45.6358 182.904ZM71.2555 210.58C82.4203 217.209 94.9565 220.5 108.787 220.5V214.5C95.951 214.5 84.4872 211.458 74.3187 205.42L71.2555 210.58Z" fill="#ECF2F6" fill-opacity="0.8" mask="url(#path-1-outside-1_360_515)"/>
</svg>
