<svg width="148" height="641" viewBox="0 0 148 641" fill="none" xmlns="http://www.w3.org/2000/svg">
<path d="M97.8795 560.486C59.5988 596.904 135.879 637.184 148 648H-80C-79.6724 514.27 -79.2138 127.437 -80 0C-21.0334 31.4659 -51.4988 116.03 -2.36096 138.646C78.547 175.885 59.5525 308.759 97.8801 337.275C136.208 365.791 157.829 503.454 97.8795 560.486Z" fill="#01261F" fill-opacity="0.5"/>
<path d="M49.8795 581.486C11.5988 617.904 87.8793 658.184 100 669H-128C-127.672 535.27 -127.214 148.437 -128 21C-69.0334 52.4659 -99.4988 137.03 -50.361 159.646C30.547 196.885 11.5525 329.759 49.8801 358.275C88.2076 386.791 109.829 524.454 49.8795 581.486Z" fill="#01261F" fill-opacity="0.5"/>
<path d="M-4.12049 604.486C-42.4012 640.904 33.8793 681.184 46 692H-182C-181.672 558.27 -181.214 171.437 -182 44C-123.033 75.4659 -153.499 160.03 -104.361 182.646C-23.453 219.885 -42.4475 352.759 -4.11993 381.275C34.2076 409.791 55.8285 547.454 -4.12049 604.486Z" fill="#01261F" fill-opacity="0.5"/>
</svg>
