<svg width="14" height="14" viewBox="0 0 14 14" fill="none" xmlns="http://www.w3.org/2000/svg">
<path fill-rule="evenodd" clip-rule="evenodd" d="M13.7193 7.15887C13.7193 6.6625 13.6748 6.18523 13.5921 5.72705H6.99933V8.43478H10.7666C10.6043 9.30978 10.1111 10.0511 9.36978 10.5475V12.3039H11.6321C12.9557 11.0852 13.7193 9.29069 13.7193 7.15887Z" fill="#4285F4"/>
<path fill-rule="evenodd" clip-rule="evenodd" d="M6.9985 14.0001C8.8885 14.0001 10.473 13.3733 11.6312 12.3042L9.36895 10.5478C8.74213 10.9678 7.94031 11.216 6.9985 11.216C5.17531 11.216 3.63213 9.98462 3.08168 8.33008H0.743042V10.1437C1.89486 12.4314 4.26213 14.0001 6.9985 14.0001Z" fill="#34A853"/>
<path fill-rule="evenodd" clip-rule="evenodd" d="M3.08318 8.33008C2.94318 7.91008 2.86364 7.46145 2.86364 7.00008C2.86364 6.53872 2.94318 6.09008 3.08318 5.67008V3.85645H0.744545C0.270454 4.80145 0 5.87054 0 7.00008C0 8.12963 0.270454 9.19872 0.744545 10.1437L3.08318 8.33008Z" fill="#FBBC05"/>
<path fill-rule="evenodd" clip-rule="evenodd" d="M6.9985 2.78409C8.02622 2.78409 8.94895 3.13727 9.67441 3.83091L11.6821 1.82318C10.4699 0.693636 8.88531 0 6.9985 0C4.26213 0 1.89486 1.56864 0.743042 3.85636L3.08168 5.67C3.63213 4.01545 5.17531 2.78409 6.9985 2.78409Z" fill="#EA4335"/>
</svg>
