<svg width="138" height="457" viewBox="0 0 138 457" fill="none" xmlns="http://www.w3.org/2000/svg">
<path d="M51.0818 -12.186C94.0341 -42.3765 13.2874 -88.2702 1.23222 -99H228C227.674 33.6597 227.218 330.583 228 457C171.308 429.688 152.932 367.78 141.985 363.358C59.8791 330.193 117.548 218.993 79.4278 190.705C41.3074 162.418 -61.327 66.8246 51.0818 -12.186Z" fill="#01261F" fill-opacity="0.5"/>
<path d="M103 -19.5246C137.475 -47.163 72.6649 -89.1772 62.989 -99H245C244.738 22.4456 244.372 294.269 245 410C199.497 384.996 184.748 328.322 175.961 324.274C110.061 293.912 156.348 192.112 125.751 166.216C95.1546 140.319 12.777 52.807 103 -19.5246Z" fill="#01261F" fill-opacity="0.5"/>
<path d="M148.053 -27.1755C179.209 -52.1532 120.638 -90.1228 111.894 -99H276.383C276.147 10.7544 275.816 256.411 276.383 361C235.261 338.404 221.932 287.185 213.991 283.526C154.434 256.088 196.265 164.088 168.614 140.684C140.963 117.281 66.5155 38.193 148.053 -27.1755Z" fill="#01261F" fill-opacity="0.5"/>
</svg>
